<?xml version="1.0" standalone="no"?>
<!DOCTYPE svg PUBLIC "-//W3C//DTD SVG 20010904//EN"
 "http://www.w3.org/TR/2001/REC-SVG-20010904/DTD/svg10.dtd">
<svg version="1.0" xmlns="http://www.w3.org/2000/svg"
 width="376.000000pt" height="376.000000pt" viewBox="0 0 376.000000 376.000000"
 preserveAspectRatio="xMidYMid meet">
<metadata>
Created by potrace 1.11, written by Peter Selinger 2001-2013
</metadata>
<g transform="translate(0.000000,376.000000) scale(0.100000,-0.100000)"
fill="#000000" stroke="none">
<path d="M2263 3750 c-29 -12 -29 -13 3 -91 89 -216 183 -557 208 -754 3 -22
10 -74 16 -115 32 -225 34 -624 4 -920 -50 -496 -199 -871 -412 -1039 -126
-98 -278 -86 -433 35 -182 144 -333 480 -404 904 -23 133 -30 248 -30 470 0
259 6 345 40 587 29 203 113 567 202 874 3 12 -4 18 -24 22 -15 3 -29 4 -31 2
-8 -8 -77 -256 -112 -400 -38 -157 -83 -386 -95 -475 -3 -25 -8 -56 -10 -70
-2 -14 -7 -47 -10 -75 -3 -27 -8 -66 -10 -85 -7 -52 -18 -285 -18 -365 0 -400
60 -732 188 -1040 105 -254 236 -407 415 -485 44 -20 72 -24 145 -24 81 -1 97
3 155 31 186 91 360 378 445 737 26 110 33 150 49 281 4 33 9 70 11 82 3 21
11 115 20 258 7 100 7 398 0 475 -21 240 -34 339 -70 525 -16 82 -62 253 -96
360 -43 131 -111 305 -119 304 -3 0 -15 -4 -27 -9z"/>
<path d="M957 3306 c-103 -140 -183 -327 -212 -495 -17 -97 -21 -426 -5 -512
5 -30 11 -65 14 -79 56 -321 259 -761 488 -1052 l44 -57 27 18 26 17 -55 74
c-57 77 -134 188 -134 195 0 2 -13 23 -29 47 -16 24 -61 106 -99 183 -186 371
-265 737 -229 1060 22 202 96 398 210 555 26 35 46 69 44 74 -2 5 -12 15 -23
23 -19 12 -24 8 -67 -51z"/>
<path d="M2714 3350 l-22 -22 48 -64 c113 -152 186 -341 215 -559 7 -56 7
-261 0 -320 -31 -257 -117 -526 -246 -774 -74 -141 -112 -202 -216 -348 -46
-63 -83 -116 -83 -117 0 -2 11 -11 25 -20 l25 -16 74 99 c403 542 575 1187
450 1686 -37 150 -130 340 -213 434 l-36 42 -21 -21z"/>
<path d="M1719 616 c-2 -2 -38 -6 -79 -9 -108 -9 -165 -17 -295 -42 -161 -31
-524 -163 -525 -191 0 -5 6 -18 13 -29 13 -17 18 -16 103 20 139 60 338 123
444 141 14 3 30 6 37 9 6 2 38 7 70 11 32 3 61 8 64 10 9 5 213 18 289 18 68
0 250 -11 310 -19 209 -28 473 -108 663 -200 l87 -43 15 21 c8 12 15 25 15 29
0 32 -444 200 -586 222 -22 4 -46 8 -54 11 -8 2 -33 6 -55 10 -22 3 -69 10
-105 16 -62 10 -403 22 -411 15z"/>
<path d="M972 297 c3 -32 4 -32 69 -39 119 -11 212 -78 264 -190 30 -64 38
-68 144 -68 70 0 74 1 105 34 17 18 46 57 64 87 116 189 407 183 507 -11 39
-77 67 -95 160 -105 84 -9 100 -1 150 75 80 121 154 170 270 179 70 6 70 6 70
36 -1 28 -3 30 -40 31 -163 2 -253 -58 -382 -255 -7 -10 -110 1 -129 14 -12 8
-31 33 -43 57 -12 24 -29 52 -39 63 -59 70 -168 117 -273 117 -146 1 -253 -67
-341 -215 l-27 -46 -58 4 c-32 2 -61 4 -64 4 -3 1 -15 22 -27 49 -53 116 -182
199 -325 207 l-58 3 3 -31z"/>
</g>
</svg>
